<svg xmlns="http://www.w3.org/2000/svg" width="128" height="128" fill="none" viewBox="0 0 24 24"><path fill="#2196F3" d="M6.385 17.25a5.75 5.75 0 0 0-5.339 3.614l-.194.486a1.75 1.75 0 0 0 1.625 2.4h19.046a1.75 1.75 0 0 0 1.625-2.4l-.195-.486a5.75 5.75 0 0 0-5.338-3.614H6.385Z"/><path fill="#FFDBA6" d="M7.565 5.25a.75.75 0 0 0-.59.288l-.87 1.112a.75.75 0 0 0-.86.742c0 .158.005.32.015.483-.02.124-.01.25.03.368.016.153.036.308.059.465a1.972 1.972 0 0 0-.599 1.403c0 1.01.748 1.74 1.63 2.002.523 1.135 1.222 2.22 2.083 3.055.954.927 2.15 1.584 3.537 1.584s2.583-.657 3.537-1.584c.861-.835 1.56-1.92 2.082-3.054.883-.262 1.631-.993 1.631-2.003 0-.56-.24-1.045-.599-1.403.023-.157.043-.312.059-.465a.752.752 0 0 0 .03-.368 7.95 7.95 0 0 0 .015-.483.75.75 0 0 0-.86-.742l-.87-1.112a.75.75 0 0 0-.59-.288h-8.87Z"/><path fill="#486472" d="m16.07 6.75 1.18 1.509V9a.75.75 0 0 0 1.5 0V6.286A3.75 3.75 0 0 0 15 2.536h-.773A2.123 2.123 0 0 0 11.784.5l-3.35.512A3.75 3.75 0 0 0 5.25 4.72V9a.75.75 0 1 0 1.5 0v-.741L7.93 6.75h8.14Z"/><path fill="#486472" fill-rule="evenodd" d="M15.711 9.263a.75.75 0 0 1-.474.948l-1.5.5a.75.75 0 0 1-.474-1.423l1.5-.5a.75.75 0 0 1 .948.475ZM8.288 9.263a.75.75 0 0 0 .475.948l1.5.5a.75.75 0 0 0 .474-1.423l-1.5-.5a.75.75 0 0 0-.949.475ZM11 5.25a.75.75 0 0 1 .75.75v1.036l.585.293a.75.75 0 1 1-.67 1.342l-1-.5a.75.75 0 0 1-.415-.671V6a.75.75 0 0 1 .75-.75Z" clip-rule="evenodd"/><path fill="#FFDBA6" fill-rule="evenodd" d="M4.353 17.621a5.74 5.74 0 0 1 2.032-.371h11.23c.708 0 1.395.13 2.032.37.066.112.103.242.103.38v.25a.75.75 0 0 1-.256.564l-2 1.75a.75.75 0 0 1-.494.186H7a.75.75 0 0 1-.494-.186l-2-1.75a.75.75 0 0 1-.256-.564V18c0-.138.037-.268.103-.379Z" clip-rule="evenodd"/><path fill="#F44336" fill-rule="evenodd" d="M19.75 17.66v.59a.75.75 0 0 1-.256.564l-2 1.75a.75.75 0 0 1-.494.186H7a.75.75 0 0 1-.494-.186l-2-1.75a.75.75 0 0 1-.256-.564v-.59c.475-.19.98-.317 1.5-.375v.625l1.532 1.34h9.436l1.532-1.34v-.625c.52.058 1.025.186 1.5.376Z" clip-rule="evenodd"/><path fill="#000" fill-rule="evenodd" d="M1.046 20.864a5.75 5.75 0 0 1 5.34-3.614h11.229a5.75 5.75 0 0 1 5.339 3.614l.194.486a1.75 1.75 0 0 1-1.625 2.4H2.477a1.75 1.75 0 0 1-1.625-2.4l.194-.486Zm5.34-2.114a4.25 4.25 0 0 0-3.947 2.672l-.194.485a.25.25 0 0 0 .232.343h19.046a.25.25 0 0 0 .232-.343l-.194-.485a4.25 4.25 0 0 0-3.946-2.672H6.385ZM5.995 6.642a.75.75 0 0 1 .75.75c0 .445.051.948.154 1.482a.75.75 0 0 1-.343.78c-.225.138-.306.316-.306.457 0 .202.212.544.743.602a.75.75 0 0 1 .609.453c.48 1.135 1.135 2.178 1.905 2.926.769.746 1.61 1.16 2.493 1.16.884 0 1.724-.414 2.492-1.16.77-.748 1.425-1.79 1.906-2.926a.75.75 0 0 1 .609-.453c.53-.058.743-.4.743-.602 0-.14-.08-.319-.306-.457a.75.75 0 0 1-.343-.78 7.99 7.99 0 0 0 .154-1.482.75.75 0 0 1 1.5 0c0 .418-.036.861-.104 1.316.359.358.599.843.599 1.403 0 1.01-.748 1.74-1.63 2.002-.523 1.135-1.222 2.22-2.083 3.055-.954.927-2.15 1.584-3.537 1.584s-2.583-.657-3.537-1.584c-.861-.835-1.56-1.92-2.082-3.054-.883-.262-1.631-.993-1.631-2.003 0-.56.24-1.045.599-1.403a8.97 8.97 0 0 1-.104-1.316.75.75 0 0 1 .75-.75Z" clip-rule="evenodd"/><path fill="#000" fill-rule="evenodd" d="M15.711 9.263a.75.75 0 0 1-.474.948l-1.5.5a.75.75 0 0 1-.474-1.423l1.5-.5a.75.75 0 0 1 .948.475ZM8.288 9.263a.75.75 0 0 0 .475.948l1.5.5a.75.75 0 0 0 .474-1.423l-1.5-.5a.75.75 0 0 0-.949.475Z" clip-rule="evenodd"/><path fill="#000" fill-rule="evenodd" d="M12.728 2.6a.623.623 0 0 0-.717-.617l-3.35.512A2.25 2.25 0 0 0 6.75 4.719V9a.75.75 0 1 1-1.5 0V4.72a3.75 3.75 0 0 1 3.183-3.708L11.784.5a2.123 2.123 0 0 1 2.443 2.036H15a3.75 3.75 0 0 1 3.75 3.75V9a.75.75 0 0 1-1.5 0V6.286A2.25 2.25 0 0 0 15 4.036h-.835a1.437 1.437 0 0 1-1.437-1.437Z" clip-rule="evenodd"/><path fill="#000" fill-rule="evenodd" d="M6.975 5.538a.75.75 0 0 1 .59-.288h8.87a.75.75 0 0 1 .59.288l1.566 2a.75.75 0 1 1-1.182.924L16.07 6.75H11.75v.286l.585.293a.75.75 0 1 1-.67 1.342l-1-.5a.75.75 0 0 1-.415-.671v-.75H7.93L6.59 8.462a.75.75 0 1 1-1.18-.924l1.565-2ZM4.436 17.756a.75.75 0 0 1 1.058-.07l1.788 1.564h9.436l1.788-1.564a.75.75 0 1 1 .988 1.128l-2 1.75a.75.75 0 0 1-.494.186H7a.75.75 0 0 1-.494-.186l-2-1.75a.75.75 0 0 1-.07-1.058Z" clip-rule="evenodd"/></svg>