<svg xmlns="http://www.w3.org/2000/svg" width="128" height="128" fill="none" viewBox="0 0 24 24"><path fill="#486472" d="M6.385 17.25a5.75 5.75 0 0 0-5.339 3.614l-.194.486a1.75 1.75 0 0 0 1.625 2.4h19.046a1.75 1.75 0 0 0 1.625-2.4l-.194-.486a5.75 5.75 0 0 0-5.34-3.614H6.386Z"/><path fill="#FFDBA6" d="M6.19 7.667a.75.75 0 0 0-.945.724c0 1.828.808 3.826 2.002 5.361 1.184 1.523 2.88 2.75 4.753 2.75 1.873 0 3.569-1.227 4.753-2.75 1.194-1.535 2.002-3.533 2.002-5.36a.75.75 0 0 0-.944-.725L12 9.223 6.19 7.667Z"/><path fill="#486472" d="M18.354.339a.75.75 0 0 1 .396.66l.005 7.392c0 .465-.052.94-.15 1.417l-5.345 1.524a4 4 0 0 1-2.52 0L5.395 9.808a7.084 7.084 0 0 1-.15-1.417L5.25 1A.75.75 0 0 1 6.416.376l2.707 1.805c.17-.048.392-.105.652-.163.59-.131 1.4-.268 2.225-.268.825 0 1.634.137 2.225.268.26.058.483.115.652.163L17.584.376a.75.75 0 0 1 .77-.037Z"/><path fill="#FAFAFA" fill-rule="evenodd" d="M15.711 7.763a.75.75 0 0 1-.474.949l-1.5.5a.75.75 0 0 1-.474-1.424l1.5-.5a.75.75 0 0 1 .948.475ZM8.288 7.763a.75.75 0 0 0 .475.949l1.5.5a.75.75 0 0 0 .474-1.424l-1.5-.5a.75.75 0 0 0-.949.475Z" clip-rule="evenodd"/><path fill="#D4D6D9" fill-rule="evenodd" d="M16.75 17.25h-9.5v.628l-.869 2.606-2.93 1.609a.75.75 0 0 0-.389.657v1h17.875v-1a.75.75 0 0 0-.389-.657l-2.93-1.609-.868-2.606v-.628Z" clip-rule="evenodd"/><path fill="#FAFAFA" fill-rule="evenodd" d="M14.75 23.75V20a.75.75 0 0 0-1.28-.53l-.78.78h-1.38l-.78-.78a.75.75 0 0 0-1.28.53v3.75h5.5Z" clip-rule="evenodd"/><path fill="#000" fill-rule="evenodd" d="M1.046 20.864a5.75 5.75 0 0 1 5.34-3.614h11.229a5.75 5.75 0 0 1 5.339 3.614l.194.486a1.75 1.75 0 0 1-1.625 2.4H2.477a1.75 1.75 0 0 1-1.625-2.4l.194-.486Zm5.34-2.114a4.25 4.25 0 0 0-3.947 2.672l-.194.485a.25.25 0 0 0 .232.343h19.046a.25.25 0 0 0 .232-.343l-.194-.485a4.25 4.25 0 0 0-3.946-2.672H6.385ZM18.354.339a.75.75 0 0 1 .396.66l.005 7.392c0 1.828-.808 3.826-2.002 5.361-1.184 1.523-2.88 2.75-4.753 2.75-1.874 0-3.569-1.227-4.753-2.75-1.194-1.535-2.002-3.533-2.002-5.36L5.25 1A.75.75 0 0 1 6.416.376l2.707 1.805c.17-.048.392-.105.652-.163.59-.131 1.4-.268 2.225-.268.826 0 1.634.137 2.225.268.26.058.483.115.652.163L17.584.376a.75.75 0 0 1 .77-.037Zm-3.591 3.373h-.001l-.01-.004-.042-.013a11.14 11.14 0 0 0-.81-.213c-.534-.119-1.226-.232-1.9-.232-.674 0-1.366.113-1.9.232a11.134 11.134 0 0 0-.81.213l-.042.013-.01.003a.75.75 0 0 1-.654-.087L6.749 2.401l-.004 5.99c0 1.426.65 3.109 1.686 4.44 1.046 1.345 2.353 2.171 3.569 2.171 1.216 0 2.523-.826 3.57-2.17 1.035-1.332 1.685-3.014 1.685-4.44L17.25 2.4l-1.835 1.223a.751.751 0 0 1-.653.088Z" clip-rule="evenodd"/><path fill="#000" fill-rule="evenodd" d="M5.776 9.303a.75.75 0 0 1 .921-.527L12 10.223l5.303-1.447a.75.75 0 1 1 .394 1.448l-5.5 1.5a.75.75 0 0 1-.394 0l-5.5-1.5a.75.75 0 0 1-.527-.921Z" clip-rule="evenodd"/><path fill="#000" fill-rule="evenodd" d="M15.711 7.763a.75.75 0 0 1-.474.949l-1.5.5a.75.75 0 0 1-.474-1.424l1.5-.5a.75.75 0 0 1 .948.475ZM8.288 7.763a.75.75 0 0 0 .475.949l1.5.5a.75.75 0 0 0 .474-1.424l-1.5-.5a.75.75 0 0 0-.949.475ZM8.237 17.288a.75.75 0 0 1 .475.95l-1 3a.75.75 0 0 1-.351.42l-3.188 1.75a.75.75 0 1 1-.721-1.315l2.93-1.609.906-2.721a.75.75 0 0 1 .95-.475Zm7.526 0a.75.75 0 0 1 .949.475l.907 2.721 2.93 1.609a.75.75 0 1 1-.722 1.314l-3.188-1.75a.75.75 0 0 1-.35-.42l-1-3a.75.75 0 0 1 .474-.948Zm-6.05 2.02a.75.75 0 0 1 .817.162l.78.78h1.38l.78-.78a.75.75 0 0 1 1.28.53v2.75a.75.75 0 0 1-1.5 0v-1.043a.75.75 0 0 1-.25.043h-2a.75.75 0 0 1-.25-.043v1.043a.75.75 0 0 1-1.5 0V20a.75.75 0 0 1 .463-.693Z" clip-rule="evenodd"/></svg>