<svg xmlns="http://www.w3.org/2000/svg" width="128" height="128" fill="none" viewBox="0 0 24 24"><path fill="#2196F3" d="M6.385 17.25a5.75 5.75 0 0 0-5.339 3.614l-.194.486a1.75 1.75 0 0 0 1.625 2.4h19.046a1.75 1.75 0 0 0 1.625-2.4l-.195-.486a5.75 5.75 0 0 0-5.338-3.614H6.385Z"/><path fill="#FFDBA6" d="M12 .75c-4.013 0-6.755 2.983-6.755 6.641 0 .42.036.862.104 1.317a1.972 1.972 0 0 0-.599 1.402c0 1.01.748 1.742 1.63 2.003.523 1.135 1.222 2.22 2.083 3.055.954.926 2.15 1.584 3.537 1.584s2.583-.658 3.537-1.584c.861-.835 1.56-1.92 2.082-3.055.883-.261 1.631-.992 1.631-2.002 0-.56-.24-1.045-.599-1.403.068-.455.104-.898.104-1.317C18.755 3.733 16.013.75 12 .75Z"/><path fill="#2196F3" d="M12 .75c-4.013 0-6.755 2.983-6.755 6.641 0 .556.063 1.154.18 1.765a.75.75 0 0 0 .252.431l2.338 1.985a.75.75 0 0 0 .485.178h1.75c.07 0 .139-.01.206-.029L12 11.28l1.544.441c.067.02.136.029.206.029h1.75a.75.75 0 0 0 .485-.178l2.338-1.985a.75.75 0 0 0 .251-.43c.117-.612.18-1.21.18-1.766C18.755 3.733 16.015.75 12 .75Z"/><path fill="#FAFAFA" fill-rule="evenodd" d="m17.126 2.96-.75 1.124a.757.757 0 0 0-.047.08l-.75 1.5A.75.75 0 0 0 15.5 6v2.156a.75.75 0 1 0 1.5 0V6.177l.65-1.3.383-.575a6.388 6.388 0 0 0-.907-1.342ZM5.966 4.302l.41.614.874 1.311v1.93a.75.75 0 1 0 1.5 0V6a.75.75 0 0 0-.126-.416l-1-1.5-.75-1.125a6.39 6.39 0 0 0-.908 1.343Z" clip-rule="evenodd"/><path fill="#486472" fill-rule="evenodd" d="M3.75 23.75V23a.75.75 0 0 1 .054-.279l1.946-4.865v-.571c.21-.023.421-.035.635-.035h.865V18a.75.75 0 0 1-.054.279L5.25 23.144v.606h-1.5Zm16.5 0h-1.5v-.606l-1.946-4.865A.75.75 0 0 1 16.75 18v-.75h.865c.214 0 .426.012.635.035v.57l1.946 4.866a.748.748 0 0 1 .054.279v.75Z" clip-rule="evenodd"/><path fill="#FAFAFA" fill-rule="evenodd" d="M10.789 4.763a.75.75 0 0 1 .711-.513h1a.75.75 0 0 1 .712.513l1 3a.75.75 0 0 1-1.423.474l-.33-.987h-.918l-.33.987a.75.75 0 0 1-1.422-.474l1-3Z" clip-rule="evenodd"/><path fill="#486472" fill-rule="evenodd" d="M15.712 8.763a.75.75 0 0 1-.475.948l-1.5.5a.75.75 0 0 1-.474-1.423l1.5-.5a.75.75 0 0 1 .949.475ZM8.288 8.763a.75.75 0 0 0 .475.948l1.5.5a.75.75 0 0 0 .474-1.423l-1.5-.5a.75.75 0 0 0-.949.475Z" clip-rule="evenodd"/><path fill="#FAFAFA" fill-rule="evenodd" d="m14.625 23.75-.982-1.636a.727.727 0 0 0-.019-.03l-1-1.5a.75.75 0 0 0-1.248 0l-1 1.5a.85.85 0 0 0-.02.03l-.98 1.636h5.249Z" clip-rule="evenodd"/></svg>