<svg xmlns="http://www.w3.org/2000/svg" width="128" height="128" fill="none" viewBox="0 0 24 24"><path fill="#F44336" d="M12 .75c-4.013 0-6.755 2.983-6.755 6.641 0 1.779.65 4.064 1.764 5.913 1.1 1.825 2.798 3.448 4.99 3.448 2.193 0 3.892-1.623 4.992-3.448 1.114-1.849 1.764-4.134 1.764-5.913C18.755 3.733 16.013.75 12 .75Z"/><path fill="#607D8B" d="M4.683 11.69a.75.75 0 0 0-.92-.402l-1.5.5a.75.75 0 0 0-.468.968l2 5.5a.75.75 0 0 0 .887.471l2-.5a.75.75 0 0 0 .5-1.038l-2.5-5.5ZM20.237 11.288a.75.75 0 0 0-.92.402l-2.5 5.5a.75.75 0 0 0 .501 1.037l2 .5a.75.75 0 0 0 .887-.47l2-5.5a.75.75 0 0 0-.468-.969l-1.5-.5Z"/><path fill="#F44336" d="M6.385 17.25a5.75 5.75 0 0 0-5.339 3.614l-.194.486a1.75 1.75 0 0 0 1.625 2.4h19.046a1.75 1.75 0 0 0 1.625-2.4l-.195-.486a5.75 5.75 0 0 0-5.338-3.614H6.385Z"/><path fill="#CC382D" fill-rule="evenodd" d="M8.886 15.547a7.932 7.932 0 0 1-1.225-1.284l.111-.445.5-2a.75.75 0 1 1 1.456.364l-.5 2-.342 1.365Zm7.453-1.285a7.938 7.938 0 0 1-1.225 1.285l-.342-1.365-.5-2a.75.75 0 0 1 1.456-.364l.5 2 .11.444Zm-.576-12.465c.44.278.838.606 1.19.974l-.268.537-.989 2.47a.75.75 0 1 1-1.392-.556l1-2.5a.742.742 0 0 1 .025-.057l.434-.868Zm-7.526 0 .434.868c.01.018.018.037.025.057l1 2.5a.75.75 0 0 1-1.392.557l-.989-2.471-.268-.537c.352-.368.75-.696 1.19-.974Z" clip-rule="evenodd"/><path fill="#486472" d="M11.1 5.732c.306.251.625.567.9.951.275-.384.593-.7.9-.95a6.203 6.203 0 0 1 1.436-.874l.538-.098c.144.024.282.073.415.132.211.094.48.252.741.514.54.54.97 1.432.97 2.843 0 1.407-.424 2.476-.857 3.198a5.32 5.32 0 0 1-.601.82 3.957 3.957 0 0 1-.21.217l-.723.252a4.837 4.837 0 0 1-.525-.142 5.077 5.077 0 0 1-1.112-.525 3.968 3.968 0 0 1-.972-.862c-.293.366-.638.65-.972.862a5.08 5.08 0 0 1-1.48.632c-.2.05-.405-.014-.604-.076a4.028 4.028 0 0 0-.177-.052 3.937 3.937 0 0 1-.31-.307 5.318 5.318 0 0 1-.6-.819C7.424 10.726 7 9.659 7 8.25c0-1.41.43-2.302.97-2.843.262-.262.53-.42.741-.514a2.053 2.053 0 0 1 .41-.132l.402.04.033.013a5.655 5.655 0 0 1 .467.215c.291.15.682.38 1.077.703Z"/><path fill="#FAFAFA" fill-rule="evenodd" d="M15.711 8.763a.75.75 0 0 1-.474.949l-1.5.5a.75.75 0 0 1-.474-1.424l1.5-.5a.75.75 0 0 1 .948.475ZM8.288 8.763a.75.75 0 0 0 .475.949l1.5.5a.75.75 0 0 0 .474-1.424l-1.5-.5a.75.75 0 0 0-.949.475Z" clip-rule="evenodd"/><path fill="#486472" fill-rule="evenodd" d="M3.786 23.75h-1.31a1.75 1.75 0 0 1-1.625-2.4l.195-.485a5.75 5.75 0 0 1 5.34-3.615h1.821a.762.762 0 0 1-.036.085l-.486.973-1.989 4.97a.748.748 0 0 1-.025.057l-.208.415H3.786Zm8.964 0h-1.5v-6.5h1.5v6.5Zm3.835 0H15.04l.5-2H15a.75.75 0 0 1-.75-.75v-3.25a.75.75 0 0 1 .192-.5h3.174a5.744 5.744 0 0 1 3.341 1.07l-.488.66-.013.018-.36.459L18.6 21.45a.75.75 0 0 1-.6.3h-.915l-.5 2Z" clip-rule="evenodd"/></svg>