<svg xmlns="http://www.w3.org/2000/svg" width="128" height="128" fill="none" viewBox="0 0 24 24"><path fill="#486472" d="M6.385 17.25a5.75 5.75 0 0 0-5.339 3.614l-.194.486a1.75 1.75 0 0 0 1.625 2.4h19.046a1.75 1.75 0 0 0 1.625-2.4l-.194-.486a5.75 5.75 0 0 0-5.34-3.614H6.386Z"/><path fill="#F44336" d="M12 .75c-2.945 0-5.231 1.612-6.222 3.958a.75.75 0 0 0-.045.146L5.26 7.246a.75.75 0 0 0-.014.145c0 .42.036.862.104 1.317a1.972 1.972 0 0 0-.599 1.402c0 .995.726 1.72 1.591 1.991.08.288.124.597.176.952.02.137.04.28.064.432.101.637.27 1.449.898 2.055.593.572 1.494.855 2.275 1.007.814.16 1.65.205 2.246.205.596 0 1.432-.046 2.246-.205.78-.152 1.682-.436 2.275-1.007.628-.606.797-1.418.898-2.055.024-.152.045-.295.064-.432a7.78 7.78 0 0 1 .176-.952c.865-.271 1.591-.996 1.591-1.99 0-.56-.24-1.045-.599-1.403.068-.455.104-.898.104-1.317a.751.751 0 0 0-.014-.145l-.474-2.392a.751.751 0 0 0-.045-.146C17.232 2.362 14.945.75 12 .75Z"/><path fill="#486472" fill-rule="evenodd" d="M15.711 9.263a.75.75 0 0 1-.474.948l-1.5.5a.75.75 0 0 1-.474-1.423l1.5-.5a.75.75 0 0 1 .948.475ZM8.289 9.263a.75.75 0 0 0 .474.948l1.5.5a.75.75 0 0 0 .474-1.423l-1.5-.5a.75.75 0 0 0-.948.475Z" clip-rule="evenodd"/><path fill="#486472" fill-rule="evenodd" d="M9.75 16.547c-.78-.154-1.68-.437-2.27-1.007-.629-.606-.798-1.418-.899-2.055a30.465 30.465 0 0 1-.064-.432c-.052-.355-.096-.664-.176-.952-.819-.257-1.513-.92-1.585-1.833l4.432 1.006A.75.75 0 0 1 9.75 12v4.547Zm1.5.183a12.98 12.98 0 0 0 1.5 0V14a.75.75 0 0 0-1.5 0v2.73Zm7.997-6.505c-.054.936-.756 1.616-1.588 1.876-.08.288-.124.597-.176.952-.02.137-.04.28-.064.432-.101.637-.27 1.449-.898 2.055-.592.57-1.49.854-2.271 1.007V12a.75.75 0 0 1 .562-.726l4.089-1.042a.749.749 0 0 1 .346-.007ZM12 .75c2.945 0 5.231 1.612 6.222 3.958.02.047.035.096.045.146l.473 2.392c.01.048.015.096.015.145 0 .218-.01.442-.029.67a.75.75 0 0 1-1.393.32l-1.38-2.331-2.656-1.55h-2.594L8.046 6.05l-1.38 2.332a.75.75 0 0 1-1.392-.31c-.019-.232-.029-.46-.029-.68a.75.75 0 0 1 .014-.146l.474-2.392a.75.75 0 0 1 .045-.146 6.358 6.358 0 0 1 3.42-3.412 6.953 6.953 0 0 1 1.73-.472A7.702 7.702 0 0 1 12 .75Z" clip-rule="evenodd"/><path fill="#CC382D" d="M9.25 2.75a2.25 2.25 0 1 0 0 4.5 2.25 2.25 0 0 0 0-4.5ZM14.75 2.75a2.25 2.25 0 1 0 0 4.5 2.25 2.25 0 0 0 0-4.5Z"/><path fill="#F44336" d="M9 17.25a.75.75 0 0 0-.735.897l1 5a.75.75 0 0 0 .735.603h4a.75.75 0 0 0 .735-.603l1-5A.75.75 0 0 0 15 17.25H9Z"/><path fill="#607D8B" fill-rule="evenodd" d="M9.185 17.273a.75.75 0 0 1 .55.58l1.18 5.897h-4.5l-.643-2.568a.75.75 0 0 1 .152-.662l2.5-3a.75.75 0 0 1 .575-.27H9c.061 0 .123.008.184.023Zm5.814-.023a.747.747 0 0 0-.735.603l-1.179 5.897h4.5l.643-2.568a.75.75 0 0 0-.152-.662l-2.5-3a.75.75 0 0 0-.575-.27h-.002Z" clip-rule="evenodd"/></svg>