<svg xmlns="http://www.w3.org/2000/svg" width="128" height="128" fill="none" viewBox="0 0 24 24"><path fill="#ECEFF1" d="M17.242 10.107a.75.75 0 0 0-.9-.84L12.922 10H11.08l-3.423-.733a.75.75 0 0 0-.9.839l.5 3.5a.75.75 0 0 0 .127.322c1.095 1.576 2.664 2.824 4.616 2.824 1.963 0 3.53-1.305 4.616-2.868a.75.75 0 0 0 .126-.321l.5-3.456Z"/><path fill="#486472" d="M12 .75c-2.926 0-5.184 1.66-6.187 3.949a.75.75 0 0 0 .096.763l4.5 5.75A.75.75 0 0 0 11 11.5h2a.75.75 0 0 0 .598-.297l4.392-5.806a.75.75 0 0 0 .074-.784C17.026 2.505 14.85.75 12 .75Z"/><path fill="#F44336" d="M6.385 17.25a5.75 5.75 0 0 0-5.338 3.614l-.195.486a1.75 1.75 0 0 0 1.625 2.4h19.046a1.75 1.75 0 0 0 1.625-2.4l-.194-.486a5.75 5.75 0 0 0-5.34-3.614H6.386Z"/><path fill="#486472" fill-rule="evenodd" d="M17.75 17.252a5.537 5.537 0 0 0-.135-.002H6.385c-.045 0-.09 0-.135.002v.998c0 .284.16.544.415.67l5 2.5a.75.75 0 0 0 .67 0l5-2.5a.75.75 0 0 0 .415-.67v-.998ZM8.721 9.804a.75.75 0 0 1 .975.418l1 2.5a.75.75 0 0 1-1.392.556l-1-2.5a.75.75 0 0 1 .417-.974Zm5.926-.04a.75.75 0 0 1 .588.883l-.5 2.5a.75.75 0 1 1-1.47-.294l.5-2.5a.75.75 0 0 1 .882-.588Z" clip-rule="evenodd"/><path fill="#FFC107" d="M4.564 1.506a.75.75 0 0 0-1.307.593l1 7.5a.75.75 0 0 0 .143.351l3 4a.75.75 0 0 0 1.342-.556L8.4 10.998l2.918.73a.75.75 0 0 0 .682-.169.75.75 0 0 0 .682.169l2.918-.73-.342 2.396a.75.75 0 0 0 1.342.556l3-4a.75.75 0 0 0 .143-.35l1-7.5a.75.75 0 0 0-1.307-.594l-3.382 3.865-2.332.933a.75.75 0 0 0-.424.433L12 10.197l-1.298-3.46a.75.75 0 0 0-.423-.433L7.946 5.37 4.564 1.506Z"/><path fill="#F44336" fill-rule="evenodd" d="M10.544 6.484a.75.75 0 0 1 .158.253l.568 1.513.562 1.5H10.75a.75.75 0 0 1-.702-.487l-.634-1.69-2.193-.877a.75.75 0 0 1-.285-.202L3.452 2.513 3.29 2.35l-.033-.252a.75.75 0 0 1 1.27-.632l.003.003a.753.753 0 0 1 .034.036l3.382 3.865 2.332.933a.75.75 0 0 1 .266.18Zm1.624 3.266 1.13-3.013a.75.75 0 0 1 .423-.433l2.333-.933 3.382-3.865a.75.75 0 0 1 1.307.593l-.033.252-.162.162-3.484 3.98a.75.75 0 0 1-.285.203l-2.193.877-.634 1.69a.75.75 0 0 1-.702.487h-1.082Z" clip-rule="evenodd"/><path fill="#F44336" d="M10.335 2.83a.75.75 0 0 0-.986 1.042l2 3.5a.75.75 0 0 0 1.302 0l2-3.5a.75.75 0 0 0-.986-1.043L12 3.662l-1.665-.833Z"/></svg>