<svg xmlns="http://www.w3.org/2000/svg" width="128" height="128" fill="none" viewBox="0 0 24 24"><path fill="#F44336" d="M6.385 17.25a5.75 5.75 0 0 0-5.339 3.614l-.194.486a1.75 1.75 0 0 0 1.625 2.4h19.046a1.75 1.75 0 0 0 1.625-2.4l-.194-.486a5.75 5.75 0 0 0-5.34-3.614H6.386Z"/><path fill="#1E81D0" fill-rule="evenodd" d="m19.11 17.447-1.877 3.407-.006.01a2.75 2.75 0 0 1-2.388 1.386H9.16a2.75 2.75 0 0 1-2.387-1.386l-.006-.01-1.877-3.407c.48-.129.982-.197 1.495-.197h.109l1.584 2.875a1.25 1.25 0 0 0 1.083.625h2.089v-3.5h1.5v3.5h2.09c.446 0 .859-.238 1.082-.625l1.584-2.875h.109a5.75 5.75 0 0 1 1.495.197Z" clip-rule="evenodd"/><path fill="#F44336" d="M12 .75c-3.41 0-5.922 2.158-6.583 5.085a.75.75 0 0 0 .489.875l5.851 2a.75.75 0 0 0 .486 0l5.851-2a.75.75 0 0 0 .49-.875C17.921 2.908 15.408.75 12 .75Z"/><path fill="#FFDBA6" d="M8 8.25a.75.75 0 0 0-.712.987l2 6a.75.75 0 0 0 .377.434l1.552.776a1.75 1.75 0 0 0 1.566 0l1.552-.776a.75.75 0 0 0 .376-.434l2-6A.75.75 0 0 0 16 8.25H8Z"/><path fill="#1E81D0" d="M6.237 5.288A.75.75 0 0 0 5.25 6v7.382c0 .663.375 1.269.967 1.565l3.448 1.724A.75.75 0 0 0 10.75 16v-3a.75.75 0 0 0-.08-.335l-.92-1.842v-.282l2.013.67a.75.75 0 0 0 .474 0l2.013-.67v.282l-.92 1.842a.75.75 0 0 0-.08.335v3a.75.75 0 0 0 1.085.67l3.448-1.723a1.75 1.75 0 0 0 .967-1.565V6a.75.75 0 0 0-.987-.712L12 7.21 6.237 5.29Z"/></svg>