<svg xmlns="http://www.w3.org/2000/svg" width="128" height="128" fill="none" viewBox="0 0 24 24"><path fill="#FFDBA6" d="M12 .75c-4.013 0-6.755 2.983-6.755 6.641 0 .42.036.862.104 1.317a1.972 1.972 0 0 0-.599 1.402c0 1.01.748 1.742 1.63 2.003.523 1.135 1.222 2.22 2.083 3.055.954.926 2.15 1.584 3.537 1.584s2.583-.658 3.537-1.584c.861-.835 1.56-1.92 2.082-3.055.883-.261 1.631-.992 1.631-2.002 0-.56-.24-1.045-.599-1.403.068-.455.104-.898.104-1.317C18.755 3.733 16.013.75 12 .75Z"/><path fill="#486472" fill-rule="evenodd" d="M18.709 8.25H16.58a1.75 1.75 0 0 0-1.581-1h-1c-.402 0-.771.136-1.066.363L6.87 4.348l-.7-.42c-.255.43-.46.894-.613 1.382l.556.333.03.017 6.107 3.288L12.25 9c0 .967.784 1.75 1.75 1.75h1c.698 0 1.3-.409 1.581-1h2.635a2.011 2.011 0 0 0-.565-1.042c.023-.154.042-.307.058-.458ZM11 12.75a.25.25 0 0 0-.25.25v.5a.75.75 0 0 1-1.5 0V13c0-.966.784-1.75 1.75-1.75h2c.966 0 1.75.784 1.75 1.75v.5a.75.75 0 0 1-1.5 0V13a.25.25 0 0 0-.25-.25h-2Z" clip-rule="evenodd"/><path fill="#486472" d="M6.385 17.25a5.75 5.75 0 0 0-5.339 3.614l-.194.486a1.75 1.75 0 0 0 1.625 2.4h19.046a1.75 1.75 0 0 0 1.625-2.4l-.195-.486a5.75 5.75 0 0 0-5.338-3.614H6.385Z"/><path fill="#607D8B" fill-rule="evenodd" d="M10.25 17.25H6.385c-.198 0-.394.01-.588.03l1.475 5.902c.037.145.084.365.127.568H16.6c.043-.203.09-.423.127-.568l1.475-5.902c-.194-.02-.39-.03-.588-.03H13.75l-.2.15a.749.749 0 0 0-.246.322L12 20.98l-1.304-3.26a.75.75 0 0 0-.246-.321l-.2-.15Z" clip-rule="evenodd"/><path fill="#607D8B" d="M6.45 14.4a.75.75 0 0 0-1.178.782l2 8A.75.75 0 0 0 8 23.75h8a.75.75 0 0 0 .728-.568l2-8a.75.75 0 0 0-1.178-.782l-4 3a.749.749 0 0 0-.246.322L12 20.98l-1.304-3.26a.75.75 0 0 0-.246-.321l-4-3Z"/><path fill="#486472" fill-rule="evenodd" d="M8.288 8.763a.75.75 0 0 0 .475.948l1.5.5a.75.75 0 0 0 .474-1.423l-1.5-.5a.75.75 0 0 0-.949.475Z" clip-rule="evenodd"/></svg>