<svg xmlns="http://www.w3.org/2000/svg" width="128" height="128" fill="none" viewBox="0 0 24 24"><path fill="#FFDBA6" d="M6.385 17.25a5.75 5.75 0 0 0-5.339 3.614l-.194.486a1.75 1.75 0 0 0 1.625 2.4h19.046a1.75 1.75 0 0 0 1.625-2.4l-.195-.486a5.75 5.75 0 0 0-5.338-3.614H6.385Z"/><path fill="#486472" d="M16.383 11.201c-.154.36-.326.712-.514 1.049H15a.75.75 0 0 0 0 1.5h1.938a2.75 2.75 0 0 0 2.668-2.083l1.122-4.485c.024-.1.029-.204.012-.305l-.816-4.895A1.75 1.75 0 0 0 17.717.587L12 2.22 6.283.587a1.75 1.75 0 0 0-2.207 1.395L3.26 6.877a.75.75 0 0 0 .012.305l1.122 4.485a2.75 2.75 0 0 0 2.668 2.083H9a.75.75 0 0 0 0-1.5h-.869c-.188-.337-.36-.689-.514-1.049L6.89 8.835a8.37 8.37 0 0 1-.14-1.178l1.02-1.216a1.25 1.25 0 0 1 1.261-.41l2.786.697c.12.03.244.03.364 0l2.786-.697a1.25 1.25 0 0 1 1.261.41l1.02 1.216a8.383 8.383 0 0 1-.14 1.178l-.726 2.366Z"/><path fill="#FFDBA6" d="M17.378 5.477a2.75 2.75 0 0 0-2.774-.901L12 5.226l-2.604-.65a2.75 2.75 0 0 0-2.775.901l-1.2 1.433a.75.75 0 0 0-.176.482c0 .555.063 1.153.18 1.765a.75.75 0 0 0 .02.078l.75 2.443a.753.753 0 0 0 .026.073c.535 1.264 1.29 2.493 2.242 3.417.954.927 2.15 1.584 3.537 1.584s2.583-.657 3.537-1.584c.952-.924 1.707-2.153 2.242-3.417a.753.753 0 0 0 .027-.073l.749-2.443a.76.76 0 0 0 .02-.078c.117-.612.18-1.21.18-1.765a.75.75 0 0 0-.175-.482l-1.201-1.433Z"/><path fill="#486472" fill-rule="evenodd" d="M5.87 2.029a.25.25 0 0 0-.314.2l-.79 4.74 1.083 4.334c.139.557.639.947 1.213.947H9a.75.75 0 0 1 0 1.5H7.062a2.75 2.75 0 0 1-2.668-2.083L3.272 7.182a.75.75 0 0 1-.012-.305l.816-4.895A1.75 1.75 0 0 1 6.283.587L12 2.22 17.717.587a1.75 1.75 0 0 1 2.207 1.395l.816 4.895a.751.751 0 0 1-.012.305l-1.122 4.485a2.75 2.75 0 0 1-2.668 2.083H15a.75.75 0 0 1 0-1.5h1.938a1.25 1.25 0 0 0 1.213-.947l1.084-4.334-.79-4.74a.25.25 0 0 0-.316-.2L12.206 3.72a.75.75 0 0 1-.412 0L5.87 2.03Z" clip-rule="evenodd"/><path fill="#486472" fill-rule="evenodd" d="M15.711 9.763a.75.75 0 0 1-.474.948l-1.5.5a.75.75 0 1 1-.474-1.423l1.5-.5a.75.75 0 0 1 .948.475ZM8.288 9.763a.75.75 0 0 0 .475.948l1.5.5a.75.75 0 1 0 .474-1.423l-1.5-.5a.75.75 0 0 0-.949.475Z" clip-rule="evenodd"/><path fill="#FAFAFA" fill-rule="evenodd" d="M9.75 17.25H6.385c-.386 0-.766.039-1.135.113V18c0 .05.005.099.014.147l.986 4.927v.676h11.5v-.676l.985-4.927A.749.749 0 0 0 18.75 18v-.637a5.748 5.748 0 0 0-1.135-.113H14.25v1.25c0 .69-.56 1.25-1.25 1.25h-2c-.69 0-1.25-.56-1.25-1.25v-1.25Z" clip-rule="evenodd"/><path fill="#000" fill-rule="evenodd" d="M1.046 20.864a5.75 5.75 0 0 1 5.34-3.614h11.229a5.75 5.75 0 0 1 5.339 3.614l.194.486a1.75 1.75 0 0 1-1.625 2.4H2.477a1.75 1.75 0 0 1-1.625-2.4l.194-.486Zm5.34-2.114a4.25 4.25 0 0 0-3.947 2.672l-.194.485a.25.25 0 0 0 .232.343h19.046a.25.25 0 0 0 .232-.343l-.194-.485a4.25 4.25 0 0 0-3.946-2.672H6.385ZM16.229 6.44a1.25 1.25 0 0 0-1.261-.409l-2.786.697a.75.75 0 0 1-.364 0L9.032 6.03a1.25 1.25 0 0 0-1.261.41L6.75 7.657c.015.365.062.762.14 1.178l.726 2.366c.48 1.122 1.128 2.15 1.89 2.891.769.746 1.61 1.16 2.493 1.16.884 0 1.724-.414 2.492-1.16.763-.74 1.412-1.77 1.891-2.89l.726-2.367c.078-.416.124-.813.14-1.178l-1.02-1.216Zm-1.625-1.864a2.75 2.75 0 0 1 2.775.901l1.2 1.433a.75.75 0 0 1 .176.482 9.47 9.47 0 0 1-.18 1.765.76.76 0 0 1-.02.078l-.75 2.444a.752.752 0 0 1-.026.072c-.535 1.264-1.29 2.493-2.242 3.417-.954.927-2.15 1.584-3.537 1.584-1.388 0-2.583-.657-3.537-1.584-.952-.924-1.707-2.153-2.242-3.417a.752.752 0 0 1-.027-.072l-.749-2.444a.752.752 0 0 1-.02-.078 9.477 9.477 0 0 1-.18-1.765.75.75 0 0 1 .175-.482l1.201-1.433a2.75 2.75 0 0 1 2.775-.901l2.604.65 2.604-.65Z" clip-rule="evenodd"/><path fill="#000" fill-rule="evenodd" d="M5.87 2.029a.25.25 0 0 0-.314.2l-.79 4.74 1.083 4.334c.139.557.639.947 1.213.947H9a.75.75 0 0 1 0 1.5H7.062a2.75 2.75 0 0 1-2.668-2.083L3.272 7.182a.75.75 0 0 1-.012-.305l.816-4.895A1.75 1.75 0 0 1 6.283.587L12 2.22 17.717.587a1.75 1.75 0 0 1 2.207 1.395l.816 4.895a.75.75 0 0 1-.012.305l-1.122 4.485a2.75 2.75 0 0 1-2.668 2.083H15a.75.75 0 0 1 0-1.5h1.939a1.25 1.25 0 0 0 1.212-.947l1.084-4.334-.79-4.74a.25.25 0 0 0-.316-.2L12.206 3.72a.75.75 0 0 1-.412 0L5.871 2.03Z" clip-rule="evenodd"/><path fill="#000" fill-rule="evenodd" d="M15.711 9.763a.75.75 0 0 1-.474.948l-1.5.5a.75.75 0 0 1-.474-1.422l1.5-.5a.75.75 0 0 1 .948.474ZM8.288 9.763a.75.75 0 0 0 .475.948l1.5.5a.75.75 0 0 0 .474-1.422l-1.5-.5a.75.75 0 0 0-.949.474ZM5.853 17.265a.75.75 0 0 1 .882.588l1 5a.75.75 0 0 1-1.47.294l-1-5a.75.75 0 0 1 .588-.882ZM16.853 23.735a.75.75 0 0 0 .882-.588l1-5a.75.75 0 1 0-1.47-.294l-1 5a.75.75 0 0 0 .588.882ZM8.25 18a.75.75 0 0 1 .75-.75h6a.75.75 0 0 1 .75.75v.5A2.75 2.75 0 0 1 13 21.25h-2a2.75 2.75 0 0 1-2.75-2.75V18Zm1.525.75c.116.57.62 1 1.225 1h2c.605 0 1.11-.43 1.225-1h-4.45Z" clip-rule="evenodd"/></svg>