<svg xmlns="http://www.w3.org/2000/svg" width="128" height="128" fill="none" viewBox="0 0 24 24"><path fill="#486472" d="M12 .75a9.223 9.223 0 0 0-9.223 9.223v.172l-.426 1.612a8.075 8.075 0 0 0 .191 4.747c.156.442.235.906.235 1.374v.622c0 .414.336.75.75.75h16.946a.75.75 0 0 0 .75-.75v-.685c0-.41.082-.814.242-1.191a6.464 6.464 0 0 0 .339-3.996l-.581-2.472v-.183A9.223 9.223 0 0 0 12 .75Z"/><path fill="#FFDBA6" d="M6.385 17.25a5.75 5.75 0 0 0-5.339 3.614l-.194.486a1.75 1.75 0 0 0 1.625 2.4h19.046a1.75 1.75 0 0 0 1.625-2.4l-.195-.486a5.75 5.75 0 0 0-5.338-3.614H6.385Z"/><path fill="#F44336" d="M8.263 19.548a.75.75 0 0 0-.688.084l-4 2.75A.75.75 0 0 0 4 23.75h16a.75.75 0 0 0 .425-1.368l-4-2.75a.75.75 0 0 0-.688-.084L12 20.949l-3.737-1.401Z"/><path fill="#FFC107" fill-rule="evenodd" d="M22.155 23.634a.748.748 0 0 0-.175-.21l-1.5-1.25a.749.749 0 0 0-.055-.042l-4-2.75a.75.75 0 0 0-.688-.084L12 20.699l-3.737-1.401a.75.75 0 0 0-.688.084l-4 2.75a.75.75 0 0 0-.055.042l-1.5 1.25a.75.75 0 0 0-.175.21c.194.075.407.116.632.116h1.495l.482-.402 3.649-2.508 3.634 1.362a.75.75 0 0 0 .526 0l3.634-1.363 3.65 2.51.482.401h1.494c.225 0 .438-.041.632-.116Z" clip-rule="evenodd"/><path fill="#FFDBA6" d="M12.225 5.285a.75.75 0 0 0-.45 0L5.77 7.176a.75.75 0 0 0-.525.716c0 .418.036.861.104 1.316a1.972 1.972 0 0 0-.599 1.403c0 1.01.748 1.74 1.63 2.002.523 1.135 1.222 2.22 2.083 3.055.954.927 2.15 1.584 3.537 1.584 1.388 0 2.583-.657 3.537-1.584.861-.835 1.56-1.92 2.082-3.054.883-.262 1.631-.993 1.631-2.003 0-.56-.24-1.045-.599-1.403.068-.455.104-.898.104-1.316a.75.75 0 0 0-.525-.716l-6.005-1.891Z"/><path fill="#486472" fill-rule="evenodd" d="M15.711 9.763a.75.75 0 0 1-.474.948l-1.5.5a.75.75 0 0 1-.474-1.423l1.5-.5a.75.75 0 0 1 .948.475ZM8.288 9.763a.75.75 0 0 0 .475.948l1.5.5a.75.75 0 0 0 .474-1.423l-1.5-.5a.75.75 0 0 0-.949.475Z" clip-rule="evenodd"/><path fill="#FFC107" d="M10 4.25c-.09 0-.18.017-.263.05l-4 1.584a.791.791 0 0 0-.487.741v1.333c0 .238.1.462.274.613.174.15.403.21.623.164l4.606-.973.717.756c.292.31.767.31 1.06 0l.716-.756 4.607.973a.721.721 0 0 0 .622-.164.81.81 0 0 0 .275-.613v-1.07c0-.314-.177-.598-.45-.724l-4-1.848a.716.716 0 0 0-.3-.066h-4Z"/></svg>