<svg xmlns="http://www.w3.org/2000/svg" width="128" height="128" fill="none" viewBox="0 0 24 24"><path fill="#F44336" d="M6.385 17.25a5.75 5.75 0 0 0-5.339 3.614l-.194.486a1.75 1.75 0 0 0 1.625 2.4h19.046a1.75 1.75 0 0 0 1.625-2.4l-.195-.486a5.75 5.75 0 0 0-5.338-3.614H6.385Z"/><path fill="#486472" fill-rule="evenodd" d="m5.085 23.75 1.13-5.645-.414-.825c.193-.02.388-.03.584-.03h11.23c.196 0 .391.01.584.03l-.413.825 1.129 5.645H5.085Z" clip-rule="evenodd"/><path fill="#486472" d="M20 11.25a.75.75 0 0 1 .67 1.085l-2.884 5.77.95 4.748a.75.75 0 0 1-.736.897H6a.75.75 0 0 1-.735-.897l.95-4.748-2.886-5.77A.75.75 0 0 1 4 11.25h16Z"/><path fill="#607D8B" fill-rule="evenodd" d="m6.085 18.75.13-.645-.429-.855H8a.75.75 0 0 1 .53.22l2 2c.14.14.22.331.22.53v3.75h-1.5v-3.44l-1.56-1.56H6.084Zm8.665 5h-1.5V20a.75.75 0 0 1 .22-.53l2-2a.75.75 0 0 1 .53-.22h2.213l-.427.855.129.645H16.31l-1.561 1.56v3.44Z" clip-rule="evenodd"/><path fill="#2196F3" d="M10 1.05a.75.75 0 0 0-.226.034c-2.786.883-4.529 3.393-4.529 6.307 0 .42.036.862.104 1.317a1.972 1.972 0 0 0-.599 1.402c0 1.01.748 1.742 1.63 2.003.523 1.135 1.222 2.22 2.083 3.055.954.926 2.15 1.584 3.537 1.584s2.583-.658 3.537-1.584c.861-.835 1.56-1.92 2.082-3.055.883-.261 1.631-.993 1.631-2.002 0-.56-.24-1.045-.599-1.403.068-.455.104-.898.104-1.317 0-2.914-1.743-5.424-4.528-6.307A.75.75 0 0 0 14 1.05h-4Z"/><path fill="#59B4FD" fill-rule="evenodd" d="M5.392 5.952 6.97 7.53a.75.75 0 0 0 1.06-1.06l-2-2a.754.754 0 0 0-.104-.087 6.67 6.67 0 0 0-.534 1.57Zm.67-1.83L7.47 5.53a.75.75 0 0 0 1.06-1.06l-1.5-1.5a.755.755 0 0 0-.094-.08c-.34.374-.632.787-.875 1.232Z" clip-rule="evenodd"/><path fill="#486472" fill-rule="evenodd" d="M15.711 8.263a.75.75 0 0 1-.474.948l-1.5.5a.75.75 0 0 1-.474-1.423l1.5-.5a.75.75 0 0 1 .948.475ZM8.288 8.263a.75.75 0 0 0 .475.948l1.5.5a.75.75 0 0 0 .474-1.423l-1.5-.5a.75.75 0 0 0-.949.475Z" clip-rule="evenodd"/><path fill="#F44336" d="M10 .25a.75.75 0 0 0-.735.897l1 5A.75.75 0 0 0 11 6.75h2a.75.75 0 0 0 .735-.603l1-5A.75.75 0 0 0 14 .25h-4Z"/></svg>